<svg id="visual" className='h-full w-auto m-0 p-0' viewBox="0 0 960 540" width="960" height="540" xmlns="http://www.w3.org/2000/svg" xmlns:xlink="http://www.w3.org/1999/xlink" version="1.1"><rect x="0" y="0" width="960" height="540" fill="#fafafa"></rect><path d="M238 0L237.8 6C237.7 12 237.3 24 233.2 36C229 48 221 60 229.8 72C238.7 84 264.3 96 275.3 108C286.3 120 282.7 132 273.7 144C264.7 156 250.3 168 243.8 180C237.3 192 238.7 204 235.5 216C232.3 228 224.7 240 216.7 252C208.7 264 200.3 276 213.3 288C226.3 300 260.7 312 273 324C285.3 336 275.7 348 265.2 360C254.7 372 243.3 384 241 396C238.7 408 245.3 420 244.2 432C243 444 234 456 226.7 468C219.3 480 213.7 492 223.3 504C233 516 258 528 270.5 534L283 540L0 540L0 534C0 528 0 516 0 504C0 492 0 480 0 468C0 456 0 444 0 432C0 420 0 408 0 396C0 384 0 372 0 360C0 348 0 336 0 324C0 312 0 300 0 288C0 276 0 264 0 252C0 240 0 228 0 216C0 204 0 192 0 180C0 168 0 156 0 144C0 132 0 120 0 108C0 96 0 84 0 72C0 60 0 48 0 36C0 24 0 12 0 6L0 0Z" fill="#c8e4e5"></path><path d="M244 0L245 6C246 12 248 24 248.5 36C249 48 248 60 247.3 72C246.7 84 246.3 96 234.8 108C223.3 120 200.7 132 192.7 144C184.7 156 191.3 168 199.8 180C208.3 192 218.7 204 224 216C229.3 228 229.7 240 229.8 252C230 264 230 276 229.7 288C229.3 300 228.7 312 223 324C217.3 336 206.7 348 211.8 360C217 372 238 384 229.8 396C221.7 408 184.3 420 181.3 432C178.3 444 209.7 456 220.8 468C232 480 223 492 212.7 504C202.3 516 190.7 528 184.8 534L179 540L0 540L0 534C0 528 0 516 0 504C0 492 0 480 0 468C0 456 0 444 0 432C0 420 0 408 0 396C0 384 0 372 0 360C0 348 0 336 0 324C0 312 0 300 0 288C0 276 0 264 0 252C0 240 0 228 0 216C0 204 0 192 0 180C0 168 0 156 0 144C0 132 0 120 0 108C0 96 0 84 0 72C0 60 0 48 0 36C0 24 0 12 0 6L0 0Z" fill="#afc9ca"></path><path d="M195 0L188.5 6C182 12 169 24 161.7 36C154.3 48 152.7 60 149.7 72C146.7 84 142.3 96 150.5 108C158.7 120 179.3 132 191.7 144C204 156 208 168 195.3 180C182.7 192 153.3 204 148.3 216C143.3 228 162.7 240 174.5 252C186.3 264 190.7 276 197.3 288C204 300 213 312 216.7 324C220.3 336 218.7 348 218.3 360C218 372 219 384 206.3 396C193.7 408 167.3 420 160.8 432C154.3 444 167.7 456 175.3 468C183 480 185 492 192.3 504C199.7 516 212.3 528 218.7 534L225 540L0 540L0 534C0 528 0 516 0 504C0 492 0 480 0 468C0 456 0 444 0 432C0 420 0 408 0 396C0 384 0 372 0 360C0 348 0 336 0 324C0 312 0 300 0 288C0 276 0 264 0 252C0 240 0 228 0 216C0 204 0 192 0 180C0 168 0 156 0 144C0 132 0 120 0 108C0 96 0 84 0 72C0 60 0 48 0 36C0 24 0 12 0 6L0 0Z" fill="#98aeaf"></path><path d="M166 0L163.8 6C161.7 12 157.3 24 151.8 36C146.3 48 139.7 60 147.3 72C155 84 177 96 183.7 108C190.3 120 181.7 132 174.2 144C166.7 156 160.3 168 157.3 180C154.3 192 154.7 204 149.2 216C143.7 228 132.3 240 137 252C141.7 264 162.3 276 166 288C169.7 300 156.3 312 156.7 324C157 336 171 348 172 360C173 372 161 384 163 396C165 408 181 420 174 432C167 444 137 456 122 468C107 480 107 492 108.3 504C109.7 516 112.3 528 113.7 534L115 540L0 540L0 534C0 528 0 516 0 504C0 492 0 480 0 468C0 456 0 444 0 432C0 420 0 408 0 396C0 384 0 372 0 360C0 348 0 336 0 324C0 312 0 300 0 288C0 276 0 264 0 252C0 240 0 228 0 216C0 204 0 192 0 180C0 168 0 156 0 144C0 132 0 120 0 108C0 96 0 84 0 72C0 60 0 48 0 36C0 24 0 12 0 6L0 0Z" fill="#809496"></path><path d="M151 0L147.5 6C144 12 137 24 131.8 36C126.7 48 123.3 60 120 72C116.7 84 113.3 96 121.5 108C129.7 120 149.3 132 157.7 144C166 156 163 168 150.5 180C138 192 116 204 113.3 216C110.7 228 127.3 240 132.8 252C138.3 264 132.7 276 124.3 288C116 300 105 312 98.3 324C91.7 336 89.3 348 92.8 360C96.3 372 105.7 384 112.8 396C120 408 125 420 120.5 432C116 444 102 456 95.7 468C89.3 480 90.7 492 95.7 504C100.7 516 109.3 528 113.7 534L118 540L0 540L0 534C0 528 0 516 0 504C0 492 0 480 0 468C0 456 0 444 0 432C0 420 0 408 0 396C0 384 0 372 0 360C0 348 0 336 0 324C0 312 0 300 0 288C0 276 0 264 0 252C0 240 0 228 0 216C0 204 0 192 0 180C0 168 0 156 0 144C0 132 0 120 0 108C0 96 0 84 0 72C0 60 0 48 0 36C0 24 0 12 0 6L0 0Z" fill="#6a7a7d"></path><path d="M116 0L114.5 6C113 12 110 24 104.7 36C99.3 48 91.7 60 92.7 72C93.7 84 103.3 96 101.7 108C100 120 87 132 83 144C79 156 84 168 86.5 180C89 192 89 204 96 216C103 228 117 240 113 252C109 264 87 276 87.2 288C87.3 300 109.7 312 117.7 324C125.7 336 119.3 348 116.7 360C114 372 115 384 109.2 396C103.3 408 90.7 420 87.5 432C84.3 444 90.7 456 94.5 468C98.3 480 99.7 492 94.2 504C88.7 516 76.3 528 70.2 534L64 540L0 540L0 534C0 528 0 516 0 504C0 492 0 480 0 468C0 456 0 444 0 432C0 420 0 408 0 396C0 384 0 372 0 360C0 348 0 336 0 324C0 312 0 300 0 288C0 276 0 264 0 252C0 240 0 228 0 216C0 204 0 192 0 180C0 168 0 156 0 144C0 132 0 120 0 108C0 96 0 84 0 72C0 60 0 48 0 36C0 24 0 12 0 6L0 0Z" fill="#546264"></path><path d="M72 0L76.2 6C80.3 12 88.7 24 92.2 36C95.7 48 94.3 60 86 72C77.7 84 62.3 96 60.3 108C58.3 120 69.7 132 78.2 144C86.7 156 92.3 168 86.5 180C80.7 192 63.3 204 59.2 216C55 228 64 240 66.3 252C68.7 264 64.3 276 68 288C71.7 300 83.3 312 84.7 324C86 336 77 348 69 360C61 372 54 384 52.5 396C51 408 55 420 63 432C71 444 83 456 85.2 468C87.3 480 79.7 492 73.8 504C68 516 64 528 62 534L60 540L0 540L0 534C0 528 0 516 0 504C0 492 0 480 0 468C0 456 0 444 0 432C0 420 0 408 0 396C0 384 0 372 0 360C0 348 0 336 0 324C0 312 0 300 0 288C0 276 0 264 0 252C0 240 0 228 0 216C0 204 0 192 0 180C0 168 0 156 0 144C0 132 0 120 0 108C0 96 0 84 0 72C0 60 0 48 0 36C0 24 0 12 0 6L0 0Z" fill="#404a4d"></path><path d="M33 0L36.3 6C39.7 12 46.3 24 47.7 36C49 48 45 60 41.2 72C37.3 84 33.7 96 31.3 108C29 120 28 132 31.3 144C34.7 156 42.3 168 45.5 180C48.7 192 47.3 204 48.3 216C49.3 228 52.7 240 53.2 252C53.7 264 51.3 276 48.8 288C46.3 300 43.7 312 43.7 324C43.7 336 46.3 348 50.2 360C54 372 59 384 54.7 396C50.3 408 36.7 420 34.2 432C31.7 444 40.3 456 41.7 468C43 480 37 492 36.7 504C36.3 516 41.7 528 44.3 534L47 540L0 540L0 534C0 528 0 516 0 504C0 492 0 480 0 468C0 456 0 444 0 432C0 420 0 408 0 396C0 384 0 372 0 360C0 348 0 336 0 324C0 312 0 300 0 288C0 276 0 264 0 252C0 240 0 228 0 216C0 204 0 192 0 180C0 168 0 156 0 144C0 132 0 120 0 108C0 96 0 84 0 72C0 60 0 48 0 36C0 24 0 12 0 6L0 0Z" fill="#2c3436"></path></svg>