<svg id="visual" viewBox="0 0 960 540" width="960" height="540" xmlns="http://www.w3.org/2000/svg" xmlns:xlink="http://www.w3.org/1999/xlink" version="1.1"><path d="M724 540L724.2 534C724.3 528 724.7 516 728.8 504C733 492 741 480 732.2 468C723.3 456 697.7 444 686.7 432C675.7 420 679.3 408 688.3 396C697.3 384 711.7 372 718.2 360C724.7 348 723.3 336 726.5 324C729.7 312 737.3 300 745.3 288C753.3 276 761.7 264 748.7 252C735.7 240 701.3 228 689 216C676.7 204 686.3 192 696.8 180C707.3 168 718.7 156 721 144C723.3 132 716.7 120 717.8 108C719 96 728 84 735.3 72C742.7 60 748.3 48 738.7 36C729 24 704 12 691.5 6L679 0L960 0L960 6C960 12 960 24 960 36C960 48 960 60 960 72C960 84 960 96 960 108C960 120 960 132 960 144C960 156 960 168 960 180C960 192 960 204 960 216C960 228 960 240 960 252C960 264 960 276 960 288C960 300 960 312 960 324C960 336 960 348 960 360C960 372 960 384 960 396C960 408 960 420 960 432C960 444 960 456 960 468C960 480 960 492 960 504C960 516 960 528 960 534L960 540Z" fill="#c8e4e5"></path><path d="M718 540L717 534C716 528 714 516 713.5 504C713 492 714 480 714.7 468C715.3 456 715.7 444 727.2 432C738.7 420 761.3 408 769.3 396C777.3 384 770.7 372 762.2 360C753.7 348 743.3 336 738 324C732.7 312 732.3 300 732.2 288C732 276 732 264 732.3 252C732.7 240 733.3 228 739 216C744.7 204 755.3 192 750.2 180C745 168 724 156 732.2 144C740.3 132 777.7 120 780.7 108C783.7 96 752.3 84 741.2 72C730 60 739 48 749.3 36C759.7 24 771.3 12 777.2 6L783 0L960 0L960 6C960 12 960 24 960 36C960 48 960 60 960 72C960 84 960 96 960 108C960 120 960 132 960 144C960 156 960 168 960 180C960 192 960 204 960 216C960 228 960 240 960 252C960 264 960 276 960 288C960 300 960 312 960 324C960 336 960 348 960 360C960 372 960 384 960 396C960 408 960 420 960 432C960 444 960 456 960 468C960 480 960 492 960 504C960 516 960 528 960 534L960 540Z" fill="#afc9ca"></path><path d="M767 540L773.5 534C780 528 793 516 800.3 504C807.7 492 809.3 480 812.3 468C815.3 456 819.7 444 811.5 432C803.3 420 782.7 408 770.3 396C758 384 754 372 766.7 360C779.3 348 808.7 336 813.7 324C818.7 312 799.3 300 787.5 288C775.7 276 771.3 264 764.7 252C758 240 749 228 745.3 216C741.7 204 743.3 192 743.7 180C744 168 743 156 755.7 144C768.3 132 794.7 120 801.2 108C807.7 96 794.3 84 786.7 72C779 60 777 48 769.7 36C762.3 24 749.7 12 743.3 6L737 0L960 0L960 6C960 12 960 24 960 36C960 48 960 60 960 72C960 84 960 96 960 108C960 120 960 132 960 144C960 156 960 168 960 180C960 192 960 204 960 216C960 228 960 240 960 252C960 264 960 276 960 288C960 300 960 312 960 324C960 336 960 348 960 360C960 372 960 384 960 396C960 408 960 420 960 432C960 444 960 456 960 468C960 480 960 492 960 504C960 516 960 528 960 534L960 540Z" fill="#98aeaf"></path><path d="M796 540L798.2 534C800.3 528 804.7 516 810.2 504C815.7 492 822.3 480 814.7 468C807 456 785 444 778.3 432C771.7 420 780.3 408 787.8 396C795.3 384 801.7 372 804.7 360C807.7 348 807.3 336 812.8 324C818.3 312 829.7 300 825 288C820.3 276 799.7 264 796 252C792.3 240 805.7 228 805.3 216C805 204 791 192 790 180C789 168 801 156 799 144C797 132 781 120 788 108C795 96 825 84 840 72C855 60 855 48 853.7 36C852.3 24 849.7 12 848.3 6L847 0L960 0L960 6C960 12 960 24 960 36C960 48 960 60 960 72C960 84 960 96 960 108C960 120 960 132 960 144C960 156 960 168 960 180C960 192 960 204 960 216C960 228 960 240 960 252C960 264 960 276 960 288C960 300 960 312 960 324C960 336 960 348 960 360C960 372 960 384 960 396C960 408 960 420 960 432C960 444 960 456 960 468C960 480 960 492 960 504C960 516 960 528 960 534L960 540Z" fill="#809496"></path><path d="M811 540L814.5 534C818 528 825 516 830.2 504C835.3 492 838.7 480 842 468C845.3 456 848.7 444 840.5 432C832.3 420 812.7 408 804.3 396C796 384 799 372 811.5 360C824 348 846 336 848.7 324C851.3 312 834.7 300 829.2 288C823.7 276 829.3 264 837.7 252C846 240 857 228 863.7 216C870.3 204 872.7 192 869.2 180C865.7 168 856.3 156 849.2 144C842 132 837 120 841.5 108C846 96 860 84 866.3 72C872.7 60 871.3 48 866.3 36C861.3 24 852.7 12 848.3 6L844 0L960 0L960 6C960 12 960 24 960 36C960 48 960 60 960 72C960 84 960 96 960 108C960 120 960 132 960 144C960 156 960 168 960 180C960 192 960 204 960 216C960 228 960 240 960 252C960 264 960 276 960 288C960 300 960 312 960 324C960 336 960 348 960 360C960 372 960 384 960 396C960 408 960 420 960 432C960 444 960 456 960 468C960 480 960 492 960 504C960 516 960 528 960 534L960 540Z" fill="#6a7a7d"></path><path d="M846 540L847.5 534C849 528 852 516 857.3 504C862.7 492 870.3 480 869.3 468C868.3 456 858.7 444 860.3 432C862 420 875 408 879 396C883 384 878 372 875.5 360C873 348 873 336 866 324C859 312 845 300 849 288C853 276 875 264 874.8 252C874.7 240 852.3 228 844.3 216C836.3 204 842.7 192 845.3 180C848 168 847 156 852.8 144C858.7 132 871.3 120 874.5 108C877.7 96 871.3 84 867.5 72C863.7 60 862.3 48 867.8 36C873.3 24 885.7 12 891.8 6L898 0L960 0L960 6C960 12 960 24 960 36C960 48 960 60 960 72C960 84 960 96 960 108C960 120 960 132 960 144C960 156 960 168 960 180C960 192 960 204 960 216C960 228 960 240 960 252C960 264 960 276 960 288C960 300 960 312 960 324C960 336 960 348 960 360C960 372 960 384 960 396C960 408 960 420 960 432C960 444 960 456 960 468C960 480 960 492 960 504C960 516 960 528 960 534L960 540Z" fill="#546264"></path><path d="M890 540L885.8 534C881.7 528 873.3 516 869.8 504C866.3 492 867.7 480 876 468C884.3 456 899.7 444 901.7 432C903.7 420 892.3 408 883.8 396C875.3 384 869.7 372 875.5 360C881.3 348 898.7 336 902.8 324C907 312 898 300 895.7 288C893.3 276 897.7 264 894 252C890.3 240 878.7 228 877.3 216C876 204 885 192 893 180C901 168 908 156 909.5 144C911 132 907 120 899 108C891 96 879 84 876.8 72C874.7 60 882.3 48 888.2 36C894 24 898 12 900 6L902 0L960 0L960 6C960 12 960 24 960 36C960 48 960 60 960 72C960 84 960 96 960 108C960 120 960 132 960 144C960 156 960 168 960 180C960 192 960 204 960 216C960 228 960 240 960 252C960 264 960 276 960 288C960 300 960 312 960 324C960 336 960 348 960 360C960 372 960 384 960 396C960 408 960 420 960 432C960 444 960 456 960 468C960 480 960 492 960 504C960 516 960 528 960 534L960 540Z" fill="#404a4d"></path><path d="M929 540L925.7 534C922.3 528 915.7 516 914.3 504C913 492 917 480 920.8 468C924.7 456 928.3 444 930.7 432C933 420 934 408 930.7 396C927.3 384 919.7 372 916.5 360C913.3 348 914.7 336 913.7 324C912.7 312 909.3 300 908.8 288C908.3 276 910.7 264 913.2 252C915.7 240 918.3 228 918.3 216C918.3 204 915.7 192 911.8 180C908 168 903 156 907.3 144C911.7 132 925.3 120 927.8 108C930.3 96 921.7 84 920.3 72C919 60 925 48 925.3 36C925.7 24 920.3 12 917.7 6L915 0L960 0L960 6C960 12 960 24 960 36C960 48 960 60 960 72C960 84 960 96 960 108C960 120 960 132 960 144C960 156 960 168 960 180C960 192 960 204 960 216C960 228 960 240 960 252C960 264 960 276 960 288C960 300 960 312 960 324C960 336 960 348 960 360C960 372 960 384 960 396C960 408 960 420 960 432C960 444 960 456 960 468C960 480 960 492 960 504C960 516 960 528 960 534L960 540Z" fill="#2c3436"></path></svg>