<svg id="visual" viewBox="0 0 540 960" width="540" height="960" xmlns="http://www.w3.org/2000/svg" xmlns:xlink="http://www.w3.org/1999/xlink" version="1.1"><rect x="0" y="0" width="540" height="960" fill="#2c3436"></rect><path d="M337 960L423 873L347 785L388 698L412 611L399 524L360 436L342 349L450 262L418 175L427 87L336 0L540 0L540 87L540 175L540 262L540 349L540 436L540 524L540 611L540 698L540 785L540 873L540 960Z" fill="#cfff04"></path><path d="M413 960L386 873L402 785L452 698L460 611L375 524L391 436L450 349L378 262L454 175L407 87L428 0L540 0L540 87L540 175L540 262L540 349L540 436L540 524L540 611L540 698L540 785L540 873L540 960Z" fill="#d7ff41"></path><path d="M412 960L466 873L426 785L451 698L409 611L418 524L414 436L470 349L395 262L437 175L423 87L402 0L540 0L540 87L540 175L540 262L540 349L540 436L540 524L540 611L540 698L540 785L540 873L540 960Z" fill="#dfff60"></path><path d="M454 960L465 873L391 785L441 698L431 611L418 524L411 436L461 349L411 262L440 175L426 87L423 0L540 0L540 87L540 175L540 262L540 349L540 436L540 524L540 611L540 698L540 785L540 873L540 960Z" fill="#e5ff7a"></path><path d="M410 960L428 873L475 785L445 698L464 611L448 524L461 436L459 349L471 262L420 175L471 87L481 0L540 0L540 87L540 175L540 262L540 349L540 436L540 524L540 611L540 698L540 785L540 873L540 960Z" fill="#ebff92"></path><path d="M424 960L439 873L436 785L461 698L457 611L482 524L429 436L447 349L480 262L424 175L492 87L457 0L540 0L540 87L540 175L540 262L540 349L540 436L540 524L540 611L540 698L540 785L540 873L540 960Z" fill="#f1ffa8"></path><path d="M454 960L479 873L451 785L487 698L484 611L461 524L449 436L455 349L498 262L474 175L478 87L450 0L540 0L540 87L540 175L540 262L540 349L540 436L540 524L540 611L540 698L540 785L540 873L540 960Z" fill="#f5ffbe"></path><path d="M521 960L499 873L516 785L498 698L515 611L471 524L497 436L482 349L518 262L467 175L475 87L478 0L540 0L540 87L540 175L540 262L540 349L540 436L540 524L540 611L540 698L540 785L540 873L540 960Z" fill="#f9ffd4"></path><path d="M506 960L517 873L523 785L526 698L505 611L518 524L521 436L504 349L500 262L491 175L518 87L494 0L540 0L540 87L540 175L540 262L540 349L540 436L540 524L540 611L540 698L540 785L540 873L540 960Z" fill="#fcffe9"></path><path d="M523 960L534 873L539 785L526 698L532 611L532 524L518 436L537 349L539 262L509 175L533 87L540 0L540 0L540 87L540 175L540 262L540 349L540 436L540 524L540 611L540 698L540 785L540 873L540 960Z" fill="#ffffff"></path></svg>