<svg id="visual" viewBox="0 0 960 540" width="960" height="540" xmlns="http://www.w3.org/2000/svg" xmlns:xlink="http://www.w3.org/1999/xlink" version="1.1"><rect x="0" y="0" width="960" height="540" fill="#2c3436"></rect><path d="M598 540L751 491L617 442L690 393L732 344L709 295L640 245L606 196L799 147L743 98L759 49L596 0L960 0L960 49L960 98L960 147L960 196L960 245L960 295L960 344L960 393L960 442L960 491L960 540Z" fill="#cfff04"></path><path d="M734 540L686 491L715 442L804 393L817 344L666 295L694 245L799 196L671 147L806 98L722 49L760 0L960 0L960 49L960 98L960 147L960 196L960 245L960 295L960 344L960 393L960 442L960 491L960 540Z" fill="#d7ff41"></path><path d="M732 540L827 491L757 442L802 393L727 344L742 295L735 245L835 196L702 147L776 98L752 49L714 0L960 0L960 49L960 98L960 147L960 196L960 245L960 295L960 344L960 393L960 442L960 491L960 540Z" fill="#dfff60"></path><path d="M807 540L825 491L694 442L783 393L766 344L743 295L730 245L818 196L731 147L781 98L757 49L751 0L960 0L960 49L960 98L960 147L960 196L960 245L960 295L960 344L960 393L960 442L960 491L960 540Z" fill="#e5ff7a"></path><path d="M727 540L759 491L844 442L790 393L825 344L796 295L819 245L815 196L836 147L746 98L837 49L853 0L960 0L960 49L960 98L960 147L960 196L960 245L960 295L960 344L960 393L960 442L960 491L960 540Z" fill="#ebff92"></path><path d="M754 540L779 491L775 442L819 393L811 344L856 295L763 245L795 196L852 147L754 98L874 49L812 0L960 0L960 49L960 98L960 147L960 196L960 245L960 295L960 344L960 393L960 442L960 491L960 540Z" fill="#f1ffa8"></path><path d="M807 540L851 491L801 442L865 393L859 344L818 295L797 245L808 196L885 147L841 98L849 49L798 0L960 0L960 49L960 98L960 147L960 196L960 245L960 295L960 344L960 393L960 442L960 491L960 540Z" fill="#f5ffbe"></path><path d="M925 540L887 491L916 442L884 393L915 344L836 295L883 245L856 196L920 147L830 98L843 49L850 0L960 0L960 49L960 98L960 147L960 196L960 245L960 295L960 344L960 393L960 442L960 491L960 540Z" fill="#f9ffd4"></path><path d="M899 540L919 491L929 442L934 393L898 344L919 295L926 245L895 196L889 147L873 98L920 49L878 0L960 0L960 49L960 98L960 147L960 196L960 245L960 295L960 344L960 393L960 442L960 491L960 540Z" fill="#fcffe9"></path><path d="M930 540L949 491L957 442L935 393L944 344L945 295L921 245L954 196L958 147L904 98L947 49L960 0L960 0L960 49L960 98L960 147L960 196L960 245L960 295L960 344L960 393L960 442L960 491L960 540Z" fill="#ffffff"></path></svg>